HIERARCHY
ROOT Hips
{
	OFFSET 0.000000 88.474243 0.000000
	CHANNELS 6 Xposition Yposition Zposition Zrotation Yrotation Xrotation 
	JOINT Hips_Spine
	{
		OFFSET 0.000000 0.000000 0.000000
		CHANNELS 3 Zrotation Yrotation Xrotation
		JOINT Spine
		{
			OFFSET 0.005100 8.711998 -0.691000
			CHANNELS 3 Zrotation Yrotation Xrotation
			JOINT Spine1
			{
				OFFSET -0.009200 8.660301 -1.275000
				CHANNELS 3 Zrotation Yrotation Xrotation
				JOINT Spine2
				{
					OFFSET 0.006300 9.852501 -1.857000
					CHANNELS 3 Zrotation Yrotation Xrotation
					JOINT Spine2_Neck
					{
						OFFSET 0.000000 0.000000 0.000000
						CHANNELS 3 Zrotation Yrotation Xrotation
						JOINT Neck
						{
							OFFSET 0.016300 11.420799 -0.263300
							CHANNELS 3 Zrotation Yrotation Xrotation
							End Site #name: Head
							{
								OFFSET -0.019200 9.262405 2.362500
							}
						}
					}
					JOINT Spine2_LeftShoulder
					{
						OFFSET 0.000000 0.000000 0.000000
						CHANNELS 3 Zrotation Yrotation Xrotation
						JOINT LeftShoulder
						{
							OFFSET 5.616900 6.732201 -0.345700
							CHANNELS 3 Zrotation Yrotation Xrotation
							JOINT LeftArm
							{
								OFFSET 10.664888 -0.183372 -2.440700
								CHANNELS 3 Zrotation Yrotation Xrotation
								JOINT LeftForeArm
								{
									OFFSET 27.459126 0.000000 0.000000
									CHANNELS 3 Zrotation Yrotation Xrotation
									End Site #name: LeftHand
									{
										OFFSET 21.306858 0.000000 0.000000
									}
								}
							}
						}
					}
					JOINT Spine2_RightShoulder
					{
						OFFSET 0.000000 0.000000 0.000000
						CHANNELS 3 Zrotation Yrotation Xrotation
						JOINT RightShoulder
						{
							OFFSET -5.580300 6.737503 -0.344400
							CHANNELS 3 Zrotation Yrotation Xrotation
							JOINT RightArm
							{
								OFFSET -10.679335 -0.188484 -2.383900
								CHANNELS 3 Zrotation Yrotation Xrotation
								JOINT RightForeArm
								{
									OFFSET -27.503529 0.000000 0.000000
									CHANNELS 3 Zrotation Yrotation Xrotation
									End Site #name: RightHand
									{
										OFFSET -21.306808 0.000000 0.000000
									}
								}
							}
						}
					}
				}
			}
		}
	}
	JOINT Hips_LeftUpLeg
	{
		OFFSET 0.000000 0.000000 0.000000
		CHANNELS 3 Zrotation Yrotation Xrotation
		JOINT LeftUpLeg
		{
			OFFSET 6.857700 -6.739601 0.312100
			CHANNELS 3 Zrotation Yrotation Xrotation
			JOINT LeftLeg
			{
				OFFSET -0.367590 -34.731552 -4.572400
				CHANNELS 3 Zrotation Yrotation Xrotation
				End Site #name: LeftFoot
				{
					OFFSET 0.367590 -34.656704 -6.067400
				}
			}
		}
	}
	JOINT Hips_RightUpLeg
	{
		OFFSET 0.000000 0.000000 0.000000
		CHANNELS 3 Zrotation Yrotation Xrotation
		JOINT RightUpLeg
		{
			OFFSET -6.876100 -6.733299 0.301000
			CHANNELS 3 Zrotation Yrotation Xrotation
			JOINT RightLeg
			{
				OFFSET 0.347353 -34.795158 -4.515900
				CHANNELS 3 Zrotation Yrotation Xrotation
				End Site #name: RightFoot
				{
					OFFSET -0.347353 -34.589367 -6.070300
				}
			}
		}
	}
}
MOTION
Frames: 11
Frame Time: 0.041667
-52.127277 87.029510 17.598509 10.308726 63.827592 -20.860166 0.000000 -0.000000 0.000000 -0.404024 8.818939 -28.541082 -0.580665 -31.282539 -9.863450 0.000000 0.000000 0.000000 -7.561050 -14.493808 -5.422613 -76.328862 10.632781 -19.089818 -12.495135 -3.666508 -2.517492 -93.045490 -16.145141 3.381610 -165.355680 51.432198 -127.952611 179.259552 -26.649012 176.217017 -16.515879 -13.839116 9.828610 66.711809 -6.799251 -14.258958 46.494902 43.087358 -130.856652 -179.646826 19.288069 179.170056 -0.000000 -0.000000 0.000000 44.904512 -15.302009 29.894819 65.398126 20.539128 124.325191 -0.000000 0.000000 0.000000 89.918037 16.290209 4.109375 -23.607736 22.484969 -59.644561 
-53.327724 89.732475 18.239325 10.034636 64.146355 -21.092093 0.000000 -0.000000 0.000000 -0.426534 8.698892 -28.098385 -0.424464 -31.866967 -10.501882 0.000000 0.000000 0.000000 -7.681060 -14.771423 -5.618589 -76.546265 10.765116 -19.297035 -12.912847 -3.624646 -2.715498 -92.953009 -16.316811 3.505758 -165.318937 51.572483 -127.811719 179.299905 -26.499791 176.223131 -16.870290 -13.929823 10.243408 67.791509 -7.631791 -15.295388 47.048505 43.000954 -130.361298 -179.603860 19.869618 179.087198 -0.000000 -0.000000 0.000000 45.549153 -15.526759 29.796200 66.535138 20.240005 125.077062 -0.000000 0.000000 0.000000 89.576405 16.781752 3.566986 -23.467925 22.503452 -59.451993 
-54.582275 92.458519 18.909443 9.751763 64.675078 -21.308574 0.000000 -0.000000 0.000000 -0.381039 8.548193 -27.472745 -0.279612 -32.474215 -11.106904 0.000000 0.000000 0.000000 -7.786728 -15.085767 -5.850511 -76.695538 10.773220 -19.498126 -13.361560 -3.565036 -2.871133 -92.819544 -16.461744 3.575643 -165.335913 51.700672 -127.710191 179.320101 -26.285205 176.233484 -17.236660 -14.055849 10.695940 69.016218 -8.400529 -16.237635 47.553776 43.003412 -129.909784 -179.539303 20.372981 178.987628 -0.000000 -0.000000 0.000000 46.215408 -15.897040 29.387341 67.652281 19.911049 125.815416 -0.000000 0.000000 0.000000 89.286168 17.352022 2.830309 -23.269476 22.497490 -59.085578 
-55.893345 95.198563 19.602793 9.461686 65.417134 -21.476153 0.000000 -0.000000 0.000000 -0.342395 8.341245 -26.692652 -0.142431 -33.112010 -11.691423 0.000000 0.000000 0.000000 -7.882912 -15.449550 -6.140027 -76.786798 10.633364 -19.714469 -13.827079 -3.482412 -2.995265 -92.626350 -16.595885 3.597470 -165.441396 51.839447 -127.648788 179.328049 -26.042847 176.247023 -17.605486 -14.211249 11.150640 70.362352 -8.973279 -17.087608 47.975135 43.143110 -129.514514 -179.455413 20.722359 178.885908 -0.000000 -0.000000 0.000000 46.987959 -16.279604 28.663977 68.672444 19.559639 126.491376 -0.000000 0.000000 0.000000 89.044501 17.984031 1.959553 -23.021123 22.541705 -58.577090 
-57.261036 97.944969 20.312801 9.163718 66.333553 -21.602041 0.000000 -0.000000 0.000000 -0.364088 8.062693 -25.869533 -0.033898 -33.785366 -12.176571 0.000000 0.000000 0.000000 -7.961737 -15.866308 -6.496488 -76.800687 10.346251 -19.954397 -14.322030 -3.381882 -3.070723 -92.354337 -16.709874 3.560941 -165.603582 52.003083 -127.584279 179.327985 -25.828648 176.263540 -17.968966 -14.387274 11.591045 71.809135 -9.369448 -17.840575 48.323507 43.424791 -129.204859 -179.365525 20.947397 178.775177 -0.000000 -0.000000 0.000000 47.779317 -16.714062 27.855340 69.435259 19.215460 126.980486 -0.000000 0.000000 0.000000 88.920695 18.808251 0.856627 -22.645926 22.594564 -57.845130 
-58.672577 100.696388 21.030092 8.851291 67.452744 -21.672811 0.000000 -0.000000 0.000000 -0.372128 7.771655 -25.039233 0.039074 -34.415537 -12.789823 0.000000 0.000000 0.000000 -8.013792 -16.309371 -6.866087 -76.733836 9.931115 -20.218383 -14.813245 -3.272404 -3.123565 -91.997286 -16.798579 3.459918 -165.858213 52.171859 -127.546259 179.317418 -25.611253 176.285256 -18.328460 -14.567444 12.026424 73.302273 -9.618652 -18.516149 48.599343 43.840359 -128.986747 -179.253756 21.024096 178.665509 -0.000000 -0.000000 0.000000 48.599123 -17.177350 26.833718 69.868892 18.883019 127.368429 -0.000000 -0.000000 0.000000 88.715113 19.884708 -0.572148 -22.149307 22.693036 -56.979889 
-60.114933 103.455055 21.742506 8.529821 68.738163 -21.679659 0.000000 -0.000000 0.000000 -0.369274 7.472770 -24.207219 0.097459 -35.023155 -13.279212 0.000000 0.000000 0.000000 -8.028936 -16.766639 -7.244548 -76.581671 9.401884 -20.541721 -15.290721 -3.136258 -3.148997 -91.552288 -16.861279 3.295213 -166.152461 52.344978 -127.515310 179.301440 -25.421924 176.312142 -18.656199 -14.732971 12.428361 74.814339 -9.650140 -18.995879 48.781549 44.406472 -128.874978 -179.129638 21.073750 178.551647 -0.000000 -0.000000 0.000000 49.392283 -17.781547 25.624603 70.021411 18.761297 127.535001 -0.000000 -0.000000 0.000000 88.521884 21.020359 -1.823467 -21.564483 22.769953 -56.336459 
-61.577801 106.218491 22.442381 8.231988 70.150347 -21.618970 0.000000 -0.000000 0.000000 -0.472693 7.158415 -23.500262 0.126370 -35.567569 -13.618071 0.000000 0.000000 0.000000 -8.003007 -17.192643 -7.587490 -76.325054 8.806410 -20.956719 -15.719568 -2.996345 -3.111451 -90.994088 -16.878050 3.050658 -166.435105 52.526764 -127.460863 179.282276 -25.295699 176.348760 -18.945784 -14.866018 12.771729 76.262940 -9.518768 -19.336760 48.950925 44.968109 -128.836073 -178.995572 21.125232 178.425399 -0.000000 -0.000000 0.000000 50.129889 -18.438695 24.273922 69.803673 18.720905 127.555232 -0.000000 -0.000000 0.000000 88.283018 22.267645 -2.899406 -21.024898 22.812434 -56.037577 
-63.050861 108.984528 23.116476 7.981103 71.649219 -21.447484 0.000000 -0.000000 0.000000 -0.505640 6.927462 -22.963233 0.146024 -36.024919 -13.789357 0.000000 0.000000 0.000000 -7.950162 -17.567484 -7.876864 -75.937483 8.152278 -21.421188 -16.062121 -2.859362 -3.023710 -90.332908 -16.824875 2.697459 -166.715036 52.652432 -127.391169 179.244418 -25.213074 176.390798 -19.155874 -14.961042 13.044847 77.615298 -9.214020 -19.491967 49.014890 45.602538 -128.911043 -178.864348 21.286695 178.287186 -0.000000 -0.000000 0.000000 50.681383 -19.090783 22.921567 69.312077 18.851927 127.310104 -0.000000 -0.000000 0.000000 88.195708 23.524114 -3.547102 -20.490715 22.892379 -56.109944 
-64.530121 111.760292 23.770937 7.844637 73.143930 -21.049683 0.000000 -0.000000 0.000000 -0.397559 6.817453 -22.630675 0.196323 -36.408361 -13.896151 0.000000 0.000000 0.000000 -7.850020 -17.913195 -8.164526 -75.439808 7.412201 -21.923181 -16.325955 -2.714737 -2.808529 -89.556823 -16.731390 2.301931 -166.950378 52.784980 -127.261974 179.200934 -25.224289 176.432281 -19.295972 -15.005966 13.258573 78.838011 -8.798895 -19.502601 49.048981 46.170017 -129.077929 -178.752896 21.689631 178.134461 -0.000000 -0.000000 0.000000 51.016273 -19.716995 21.690015 68.596151 19.115233 126.820580 -0.000000 -0.000000 0.000000 88.128851 24.846036 -4.090647 -20.051091 23.005282 -56.253823 
-66.005981 114.558319 24.413824 7.727735 74.738917 -20.534253 0.000000 -0.000000 0.000000 -0.140240 6.794610 -22.591794 0.222673 -36.642723 -13.808726 0.000000 0.000000 0.000000 -7.719229 -18.203827 -8.455614 -74.855780 6.573456 -22.408114 -16.503154 -2.571406 -2.513922 -88.691568 -16.593232 1.879832 -167.172939 52.871542 -127.074457 179.150041 -25.383376 176.466569 -19.315121 -14.966358 13.380962 80.041605 -8.324444 -19.422151 49.051805 46.674503 -129.276517 -178.664788 22.219405 177.976211 -0.000000 -0.000000 0.000000 51.358380 -20.255812 20.593944 67.670328 19.468563 126.077995 -0.000000 -0.000000 0.000000 88.088910 26.562172 -4.896317 -19.837388 23.161513 -56.306628 
